<?xml version="1.0" standalone="no"?>
<!DOCTYPE svg PUBLIC "-//W3C//DTD SVG 20010904//EN"
 "http://www.w3.org/TR/2001/REC-SVG-20010904/DTD/svg10.dtd">
<svg id="logo" version="1.0" xmlns="http://www.w3.org/2000/svg"
viewBox="0 0 630.000000 396.000000"
 preserveAspectRatio="xMidYMid meet">
<metadata>
Created by potrace 1.16, written by Peter Selinger 2001-2019
</metadata>
<g transform="translate(0.000000,396.000000) scale(0.100000,-0.100000)"
fill="#000000" stroke="none">
<path fill="#000000" d="M2296 2389 c-10 -14 -12 -28 -6 -38 6 -11 -13 -59 -62 -161 -39 -80
-84 -173 -99 -207 -27 -61 -27 -63 -9 -73 18 -10 27 5 105 162 47 95 89 174
93 175 6 2 223 -377 230 -402 1 -6 -21 -23 -50 -38 -29 -15 -43 -25 -30 -21
12 3 22 1 22 -4 0 -6 -35 -25 -77 -42 -97 -40 -156 -70 -151 -76 5 -5 438 135
438 141 0 7 -372 591 -385 603 -1 2 -10 -7 -19 -19z"/>
<path d="M2840 2005 l0 -155 30 0 c30 0 30 1 30 55 0 48 3 55 19 55 13 0 31
-18 52 -54 28 -46 38 -55 66 -58 19 -2 35 -2 37 0 3 2 -16 32 -40 67 -42 60
-44 65 -26 74 29 16 46 66 36 104 -13 44 -61 67 -141 67 l-63 0 0 -155z"/>
<path d="M3136 2139 c-19 -15 -26 -30 -26 -55 0 -51 13 -68 75 -103 57 -32 66
-49 40 -71 -14 -12 -48 -10 -102 6 -20 6 -23 3 -23 -24 0 -36 12 -42 91 -42
50 0 64 4 84 25 26 26 33 72 15 105 -5 10 -34 32 -65 49 -57 32 -66 49 -39 72
12 10 25 10 56 2 36 -10 40 -9 48 11 12 30 -14 46 -76 46 -37 0 -59 -6 -78
-21z"/>
<path d="M3500 2005 l0 -155 95 0 c95 0 95 0 95 25 0 24 -2 25 -65 25 l-65 0
0 130 0 130 -30 0 -30 0 0 -155z"/>
<path d="M3768 2083 c-19 -5 -22 -12 -12 -37 5 -12 16 -14 51 -9 33 4 47 2 54
-8 15 -24 10 -29 -26 -29 -20 0 -51 -6 -69 -14 -41 -17 -55 -60 -34 -103 11
-23 20 -29 56 -31 28 -2 53 3 68 13 21 14 24 14 24 0 0 -9 9 -15 25 -15 25 0
25 0 25 95 0 88 -2 98 -25 120 -19 20 -34 25 -72 24 -26 -1 -56 -3 -65 -6z"/>
<path d="M4000 1970 l0 -120 30 0 30 0 0 68 c0 73 15 115 43 120 37 7 47 -16
47 -104 l0 -84 35 0 35 0 0 73 c0 87 -14 143 -40 157 -28 15 -86 12 -100 -5
-7 -8 -16 -15 -21 -15 -5 0 -9 7 -9 15 0 9 -9 15 -25 15 l-25 0 0 -120z"/>
<path d="M4296 2069 c-30 -24 -36 -80 -11 -116 11 -15 12 -24 4 -29 -6 -3 -9
-19 -6 -33 4 -20 0 -32 -14 -44 -28 -24 -24 -62 9 -87 23 -18 37 -21 89 -18
75 5 113 32 113 83 0 52 -20 68 -89 73 -72 5 -79 17 -16 26 54 9 89 46 82 89
-2 20 2 31 15 38 10 5 18 16 18 24 0 12 -17 15 -84 15 -69 0 -88 -4 -110 -21z"/>
</g>
</svg>
